<svg width="40" height="40" viewBox="0 0 40 40" fill="none" xmlns="http://www.w3.org/2000/svg">
<path d="M20 3.33337C10.8 3.33337 3.33334 10.8 3.33334 20C3.33334 29.2 10.8 36.6667 20 36.6667C29.2 36.6667 36.6667 29.2 36.6667 20C36.6667 10.8 29.2 3.33337 20 3.33337ZM27.7333 14.6667C27.4833 17.3 26.4 23.7 25.85 26.65C25.6167 27.9 25.15 28.3167 24.7167 28.3667C23.75 28.45 23.0167 27.7334 22.0833 27.1167C20.6167 26.15 19.7833 25.55 18.3667 24.6167C16.7167 23.5334 17.7833 22.9334 18.7333 21.9667C18.9833 21.7167 23.25 17.8334 23.3333 17.4834C23.3449 17.4304 23.3434 17.3753 23.3289 17.323C23.3143 17.2708 23.2873 17.2228 23.25 17.1834C23.15 17.1 23.0167 17.1334 22.9 17.15C22.75 17.1834 20.4167 18.7334 15.8667 21.8C15.2 22.25 14.6 22.4834 14.0667 22.4667C13.4667 22.45 12.3333 22.1334 11.4833 21.85C10.4333 21.5167 9.61668 21.3334 9.68334 20.75C9.71668 20.45 10.1333 20.15 10.9167 19.8334C15.7833 17.7167 19.0167 16.3167 20.6333 15.65C25.2667 13.7167 26.2167 13.3834 26.85 13.3834C26.9833 13.3834 27.3 13.4167 27.5 13.5834C27.6667 13.7167 27.7167 13.9 27.7333 14.0334C27.7167 14.1334 27.75 14.4334 27.7333 14.6667Z" fill="white"/>
</svg>
